<svg width="42" height="50" viewBox="0 0 42 50" fill="none" xmlns="http://www.w3.org/2000/svg">
<g id="Group">
<path id="Vector" d="M11.3748 22.2756C13.6645 27.3286 18.5665 29.5281 20.9997 29.5281C22.5995 29.5281 25.2667 28.5764 27.557 26.4888C26.7196 26.5472 25.8246 26.5768 24.8681 26.5768C24.6437 26.5768 24.4083 26.5748 24.1567 26.5708C23.6745 26.9421 23.0773 27.1515 22.4575 27.1515H20.4197C18.884 27.1515 17.6347 25.9021 17.6347 24.3664C17.6347 22.8307 18.884 21.5814 20.4197 21.5814H22.4575C23.1937 21.5814 23.8822 21.8683 24.3929 22.3633C24.5626 22.3652 24.7298 22.366 24.894 22.366C27.5246 22.366 29.2583 22.1247 30.3924 21.8337C30.2453 21.4757 30.1651 21.0841 30.1651 20.6751V13.6138C30.1651 12.8793 30.4378 12.1751 30.9092 11.6312C30.6576 9.67283 30.201 8.17775 29.5195 7.07489C28.1153 4.80218 25.408 3.74374 20.9997 3.74374C17.3426 3.74374 14.8172 4.50289 13.2794 6.06454C12.0872 7.27514 11.3964 9.00253 11.0735 11.6113C11.5555 12.1573 11.8343 12.8687 11.8343 13.6138V20.6751C11.8344 21.2627 11.6655 21.811 11.3748 22.2756Z" fill="black"/>
<path id="Vector_2" d="M6.36447 22.3422H8.80904C9.72931 22.3422 10.476 21.5958 10.476 20.6751V13.6138C10.476 12.9987 10.1419 12.4627 9.64631 12.1739C10.1922 6.39182 12.4234 2.38506 20.9999 2.38506C25.9251 2.38506 28.9996 3.64851 30.6755 6.36084C31.6507 7.9392 32.1198 9.97783 32.3389 12.1826C31.8512 12.4735 31.5238 13.0047 31.5238 13.6137V20.675C31.5238 21.4688 32.0791 22.1316 32.8221 22.2997C31.7445 23.0045 29.5135 23.7244 24.8941 23.7244C24.5199 23.7244 24.1299 23.7196 23.7237 23.7099C23.4859 23.2527 23.0088 22.9398 22.4578 22.9398H20.4201C19.6324 22.9398 18.9936 23.5785 18.9936 24.3663C18.9936 25.1541 19.6324 25.7928 20.4201 25.7928H22.4578C22.9338 25.7928 23.3544 25.5587 23.6134 25.2005C24.0424 25.2113 24.4625 25.2181 24.8684 25.2181C30.0754 25.218 33.3855 24.3292 34.7261 22.5658C34.7832 22.4908 34.8352 22.4161 34.8826 22.3422H35.6357C36.5561 22.3422 37.3026 21.5958 37.3026 20.6751V13.6138C37.3026 12.6933 36.5562 11.9469 35.6357 11.9469H34.7162C34.4575 9.28307 33.8841 7.01539 32.7046 5.1069C30.5815 1.67047 26.7526 0 20.9998 0C15.2466 0 11.4181 1.67047 9.29485 5.10704C8.1155 7.01552 7.54233 9.28293 7.28353 11.947H6.36434C5.44365 11.947 4.69727 12.6933 4.69727 13.614V20.6753C4.69727 21.5958 5.44379 22.3422 6.36447 22.3422Z" fill="black"/>
<path id="Vector_3" d="M41.1536 43.1065C40.5993 39.6603 39.4582 35.2211 37.1698 33.6438C35.6093 32.5677 30.1616 29.657 27.8353 28.4142L27.7864 28.3881C27.5202 28.2459 27.1953 28.2744 26.958 28.4607C25.7376 29.4186 24.4016 30.0639 22.9872 30.3787C22.7373 30.4342 22.532 30.6121 22.4411 30.8515L20.9998 34.6501L19.5585 30.8515C19.4677 30.6119 19.2624 30.4342 19.0124 30.3787C17.598 30.0639 16.2618 29.4186 15.0412 28.4607C14.804 28.2743 14.4791 28.2458 14.2129 28.3881C11.9127 29.6171 6.39438 32.5889 4.8364 33.6392C2.20096 35.4147 1.05 41.8372 0.846087 43.1066C0.825844 43.2325 0.837528 43.3613 0.88005 43.4814C0.974333 43.7477 3.39173 50.0001 20.9997 50.0001C38.6074 50.0001 41.025 43.7477 41.1194 43.4816C41.1621 43.3612 41.1738 43.2323 41.1536 43.1065ZM32.955 39.149H25.9811V37.6803H32.955V39.149Z" fill="black"/>
</g>
</svg>
